<svg xmlns="http://www.w3.org/2000/svg" xmlns:xlink="http://www.w3.org/1999/xlink" width="125" height="91" viewBox="0 0 125 91">
    <defs>
        <path id="t8gha" d="M47 54h124.26v90.57H47z"/>
        <path id="t8ghc" d="M61.58 77.88v-2.32h-2.3v-2.32h2.3v-2.31h2.3v2.31h2.3v2.32h2.3v2.32h2.3v-2.32h-2.3v-2.65c-.69-3.63-4.21-8.06-19.55-12.47-.09-.03-.14.02-.09.17 5.6 18.81 10.63 19.59 14.42 19.59h.62v-2.32zm-4.6-6.95h2.3V68.6h-2.3z"/>
        <path id="t8ghd" d="M70.72 77.46h2.3v-2.32h-2.3z"/>
        <path id="t8ghe" d="M73.46 75.62h2.3V73.3h-2.3z"/>
        <path id="t8ghf" d="M95.21 54.17c.07-.21-.02-.18-.14-.14C73.04 60.04 69 67.66 68.9 72.8v2.91h2.3V73.4h2.3v-2.32h2.3v2.32h2.3v2.32h-2.3v2.32h-2.3v2.32h1.8c5.04 0 11.82-2.94 19.91-26.19zm-17.1 16.91h2.3v-2.32h-2.3z"/>
        <path id="t8ghg" d="M63.07 137.95V87.87c0-2.97-2.39-5.38-5.34-5.38H47v61.71h19.7v-.17c-1.9-.78-3.63-3.1-3.63-6.08"/>
        <path id="t8ghh" d="M171.5 82.49H82.42a5.36 5.36 0 0 0-5.34 5.38v50.08c0 2.97-1.72 5.3-3.62 6.08v.17h19.7v-24.14h26.87v-11.48H93.15V94.2h40.9v50.01h16.9V94.2h20.55z"/>
        <path id="t8ghi" d="M68.9 77.9v2.32h2.3V77.9z"/>
        <path id="t8ghj" d="M66.16 80.22h2.3V77.9h-2.3z"/>
        <path id="t8ghk" d="M66.16 77.46h2.3v-2.32h-2.3z"/>
        <path id="t8ghl" d="M68.9 98.6h2.3v-2.32h-2.3z"/>
        <path id="t8ghm" d="M70.72 107.79h2.3v-2.32h-2.3z"/>
        <path id="t8ghn" d="M66.16 96.76h2.3v-2.32h-2.3z"/>
        <path id="t8gho" d="M66.16 124.34h2.3v-2.32h-2.3z"/>
        <path id="t8ghp" d="M68.9 89.4h2.3V87.1h-2.3z"/>
        <path id="t8ghq" d="M68.9 79.74v2.32h2.3v-2.32h-1.95z"/>
        <clipPath id="t8ghb">
            <use xlink:href="#t8gha"/>
        </clipPath>
    </defs>
    <g>
        <g transform="translate(-47 -54)">
            <g/>
            <g clip-path="url(#t8ghb)">
                <use fill="#6e80b5" xlink:href="#t8ghc"/>
            </g>
            <g clip-path="url(#t8ghb)">
                <use fill="#799c3e" xlink:href="#t8ghd"/>
            </g>
            <g clip-path="url(#t8ghb)">
                <use fill="#799c3e" xlink:href="#t8ghe"/>
            </g>
            <g clip-path="url(#t8ghb)">
                <use fill="#799c3e" xlink:href="#t8ghf"/>
            </g>
            <g clip-path="url(#t8ghb)">
                <use fill="#231f20" xlink:href="#t8ghg"/>
            </g>
            <g clip-path="url(#t8ghb)">
                <use fill="#231f20" xlink:href="#t8ghh"/>
            </g>
            <g clip-path="url(#t8ghb)">
                <use fill="#799c3e" xlink:href="#t8ghi"/>
            </g>
            <g clip-path="url(#t8ghb)">
                <use fill="#6e80b5" xlink:href="#t8ghj"/>
            </g>
            <g clip-path="url(#t8ghb)">
                <use fill="#799c3e" xlink:href="#t8ghk"/>
            </g>
            <g clip-path="url(#t8ghb)">
                <use fill="#6e80b5" xlink:href="#t8ghl"/>
            </g>
            <g clip-path="url(#t8ghb)">
                <use fill="#799c3e" xlink:href="#t8ghm"/>
            </g>
            <g clip-path="url(#t8ghb)">
                <use fill="#799c3e" xlink:href="#t8ghn"/>
            </g>
            <g clip-path="url(#t8ghb)">
                <use fill="#6e80b5" xlink:href="#t8gho"/>
            </g>
            <g clip-path="url(#t8ghb)">
                <use fill="#799c3e" xlink:href="#t8ghp"/>
            </g>
            <g clip-path="url(#t8ghb)">
                <use fill="#6e80b5" xlink:href="#t8ghq"/>
            </g>
        </g>
    </g>
</svg>
